#N canvas 625 498 401 295 12;
#X obj 220 234 tgl 15 0 empty empty empty 17 7 0 10 #fce0c4 #000000 #000000 0 1;
#X obj 19 18 r~ osc1;
#X obj 93 18 r~ osc2;
#N canvas 1111 426 921 747 ctl 0;
#X obj 22 56 list trim;
#X obj 22 32 r fromGUI;
#X obj 698 46 r fromSystem;
#X obj 698 70 list trim;
#X obj 698 94 route /tilts;
#X obj 698 118 unpack 0 0;
#X obj 765 169 * 0.5;
#X obj 22 202 route /touch, f 14;
#X obj 22 227 route touch, f 14;
#X obj 22 252 unpack f f f f, f 20;
#X floatatom 22 276 5 0 0 0 - - - 0;
#X floatatom 67 277 5 0 0 0 - - - 0;
#X floatatom 113 278 5 0 0 0 - - - 0;
#X floatatom 159 278 5 0 0 0 - - - 0;
#X obj 40 84 route /lockx /loop1 /loop2 /play, f 42;
#X obj 185 108 s r2-loop;
#X obj 112 108 s r1-loop;
#X obj 258 108 s on;
#X obj 40 108 s lockx;
#X obj 159 332 s vol;
#X obj 669 457 s~ ctl-o1;
#X obj 769 457 s~ ctl-o2;
#X obj 67 402 s on;
#X obj 159 304 scale 0 1 80 110;
#X obj 152 397 &&;
#X obj 113 473 spigot;
#X obj 152 422 * -1;
#X obj 152 446 + 1;
#X obj 330 181 sel 1;
#X obj 330 211 s next;
#X obj 234 211 f;
#X obj 269 211 + 1;
#X msg 234 181 1;
#X obj 234 148 loadbang;
#X obj 269 181 r frag;
#X obj 234 236 s menuupd;
#X obj 331 148 route /next /menu;
#X obj 389 236 s frag;
#X obj 389 181 unpack;
#X obj 389 211 + 1;
#X obj 29 535 loadbang;
#X obj 29 604 send toGUI;
#X obj 582 580 send toGUI;
#X obj 582 531 r menuupd;
#X msg 582 555 list /count \$1;
#X obj 765 145 + 1;
#X obj 698 169 * 0.5;
#X obj 698 145 + 1;
#X obj 698 193 s tiltx;
#X obj 765 193 s tilty;
#X obj 113 499 s touchx;
#X obj 170 368 r lockx;
#X obj 356 345 r touchx;
#X obj 523 345 r tiltx;
#X obj 688 345 r tilty;
#X obj 563 457 s~ ctl-f;
#X obj 437 345 r s_touchx;
#X obj 604 345 r s_tiltx;
#X obj 769 345 r s_tilty;
#X obj 67 370 spigot;
#X obj 106 320 - 1;
#X obj 106 344 * -1;
#X obj 197 398 s lockxx;
#N canvas 571 88 1001 268 update_labels 0;
#X obj 29 24 r s_touchx;
#X obj 348 24 r s_tiltx;
#X obj 684 24 r s_tilty;
#X obj 29 50 unpack 0 0 0 0 0, f 30;
#X obj 133 195 send toGUI;
#X msg 133 168 list /tox \$1;
#X msg 80 107 a shaper;
#X msg 132 135 a filter_freq;
#X msg 29 107 a q;
#X msg 236 135 a osc2_freq;
#X msg 184 107 a osc1_freq;
#X obj 29 79 sel 1;
#X obj 80 79 sel 1;
#X obj 132 79 sel 1;
#X obj 184 79 sel 1;
#X obj 236 79 sel 1;
#X obj 348 50 unpack 0 0 0 0 0, f 30;
#X obj 452 195 send toGUI;
#X msg 399 107 a shaper;
#X msg 451 135 a filter_freq;
#X msg 348 107 a q;
#X msg 555 135 a osc2_freq;
#X msg 503 107 a osc1_freq;
#X obj 348 79 sel 1;
#X obj 399 79 sel 1;
#X obj 451 79 sel 1;
#X obj 503 79 sel 1;
#X obj 555 79 sel 1;
#X obj 684 50 unpack 0 0 0 0 0, f 30;
#X obj 788 195 send toGUI;
#X msg 735 107 a shaper;
#X msg 787 135 a filter_freq;
#X msg 684 107 a q;
#X msg 891 135 a osc2_freq;
#X msg 839 107 a osc1_freq;
#X obj 684 79 sel 1;
#X obj 735 79 sel 1;
#X obj 787 79 sel 1;
#X obj 839 79 sel 1;
#X obj 891 79 sel 1;
#X msg 452 168 list /tix \$1;
#X msg 788 168 list /tiy \$1;
#X connect 0 0 3 0;
#X connect 1 0 16 0;
#X connect 2 0 28 0;
#X connect 3 0 11 0;
#X connect 3 1 12 0;
#X connect 3 2 13 0;
#X connect 3 3 14 0;
#X connect 3 4 15 0;
#X connect 5 0 4 0;
#X connect 6 0 5 0;
#X connect 7 0 5 0;
#X connect 8 0 5 0;
#X connect 9 0 5 0;
#X connect 10 0 5 0;
#X connect 11 0 8 0;
#X connect 12 0 6 0;
#X connect 13 0 7 0;
#X connect 14 0 10 0;
#X connect 15 0 9 0;
#X connect 16 0 23 0;
#X connect 16 1 24 0;
#X connect 16 2 25 0;
#X connect 16 3 26 0;
#X connect 16 4 27 0;
#X connect 18 0 40 0;
#X connect 19 0 40 0;
#X connect 20 0 40 0;
#X connect 21 0 40 0;
#X connect 22 0 40 0;
#X connect 23 0 20 0;
#X connect 24 0 18 0;
#X connect 25 0 19 0;
#X connect 26 0 22 0;
#X connect 27 0 21 0;
#X connect 28 0 35 0;
#X connect 28 1 36 0;
#X connect 28 2 37 0;
#X connect 28 3 38 0;
#X connect 28 4 39 0;
#X connect 30 0 41 0;
#X connect 31 0 41 0;
#X connect 32 0 41 0;
#X connect 33 0 41 0;
#X connect 34 0 41 0;
#X connect 35 0 32 0;
#X connect 36 0 30 0;
#X connect 37 0 31 0;
#X connect 38 0 34 0;
#X connect 39 0 33 0;
#X connect 40 0 17 0;
#X connect 41 0 29 0;
#X restore 753 554 pd update_labels;
#X obj 356 457 s~ ctl-q;
#X obj 444 457 s~ ctl-shaper;
#X msg 29 563 list /menu preset1 preset2 preset3 preset4 preset5 preset6 preset7 preset8 preset9 preset10 preset11 preset12;
#N canvas 1491 312 405 205 switcher~ 0;
#X obj 156 14 inlet;
#X obj 156 41 unpack 0 0 0 0 0, f 17;
#X obj 12 14 inlet~;
#X obj 12 137 *~;
#X obj 12 172 outlet~;
#X obj 73 137 *~;
#X obj 73 172 outlet~;
#X obj 134 137 *~;
#X obj 134 172 outlet~;
#X obj 194 137 *~;
#X obj 194 172 outlet~;
#X obj 254 137 *~;
#X obj 254 172 outlet~;
#X obj 12 80 scale~ 0 1 -1 1;
#X obj 73 106 scale~ 0 1 1 7;
#X obj 194 106 scale~ 0 1 -40 40;
#X obj 254 80 scale~ 0 1 -40 40;
#X obj 134 80 scale~ 0 1 0 30;
#X connect 0 0 1 0;
#X connect 1 0 3 1;
#X connect 1 1 5 1;
#X connect 1 2 7 1;
#X connect 1 3 9 1;
#X connect 1 4 11 1;
#X connect 2 0 13 0;
#X connect 2 0 14 0;
#X connect 2 0 17 0;
#X connect 2 0 15 0;
#X connect 2 0 16 0;
#X connect 3 0 4 0;
#X connect 5 0 6 0;
#X connect 7 0 8 0;
#X connect 9 0 10 0;
#X connect 11 0 12 0;
#X connect 13 0 3 0;
#X connect 14 0 5 0;
#X connect 15 0 9 0;
#X connect 16 0 11 0;
#X connect 17 0 7 0;
#X restore 356 397 pd switcher~;
#X obj 356 371 sig~;
#X obj 523 371 sig~;
#X obj 688 371 sig~;
#N canvas 1491 312 405 205 switcher~ 0;
#X obj 156 14 inlet;
#X obj 156 41 unpack 0 0 0 0 0, f 17;
#X obj 12 14 inlet~;
#X obj 12 137 *~;
#X obj 12 172 outlet~;
#X obj 73 137 *~;
#X obj 73 172 outlet~;
#X obj 134 137 *~;
#X obj 134 172 outlet~;
#X obj 194 137 *~;
#X obj 194 172 outlet~;
#X obj 254 137 *~;
#X obj 254 172 outlet~;
#X obj 12 80 scale~ 0 1 -1 1;
#X obj 73 106 scale~ 0 1 1 7;
#X obj 194 106 scale~ 0 1 -40 40;
#X obj 254 80 scale~ 0 1 -40 40;
#X obj 134 80 scale~ 0 1 0 30;
#X connect 0 0 1 0;
#X connect 1 0 3 1;
#X connect 1 1 5 1;
#X connect 1 2 7 1;
#X connect 1 3 9 1;
#X connect 1 4 11 1;
#X connect 2 0 13 0;
#X connect 2 0 14 0;
#X connect 2 0 17 0;
#X connect 2 0 15 0;
#X connect 2 0 16 0;
#X connect 3 0 4 0;
#X connect 5 0 6 0;
#X connect 7 0 8 0;
#X connect 9 0 10 0;
#X connect 11 0 12 0;
#X connect 13 0 3 0;
#X connect 14 0 5 0;
#X connect 15 0 9 0;
#X connect 16 0 11 0;
#X connect 17 0 7 0;
#X restore 523 397 pd switcher~;
#N canvas 1491 312 405 205 switcher~ 0;
#X obj 156 14 inlet;
#X obj 156 41 unpack 0 0 0 0 0, f 17;
#X obj 12 14 inlet~;
#X obj 12 137 *~;
#X obj 12 172 outlet~;
#X obj 73 137 *~;
#X obj 73 172 outlet~;
#X obj 134 137 *~;
#X obj 134 172 outlet~;
#X obj 194 137 *~;
#X obj 194 172 outlet~;
#X obj 254 137 *~;
#X obj 254 172 outlet~;
#X obj 12 80 scale~ 0 1 -1 1;
#X obj 73 106 scale~ 0 1 1 7;
#X obj 194 106 scale~ 0 1 -40 40;
#X obj 254 80 scale~ 0 1 -40 40;
#X obj 134 80 scale~ 0 1 0 30;
#X connect 0 0 1 0;
#X connect 1 0 3 1;
#X connect 1 1 5 1;
#X connect 1 2 7 1;
#X connect 1 3 9 1;
#X connect 1 4 11 1;
#X connect 2 0 13 0;
#X connect 2 0 14 0;
#X connect 2 0 17 0;
#X connect 2 0 15 0;
#X connect 2 0 16 0;
#X connect 3 0 4 0;
#X connect 5 0 6 0;
#X connect 7 0 8 0;
#X connect 9 0 10 0;
#X connect 11 0 12 0;
#X connect 13 0 3 0;
#X connect 14 0 5 0;
#X connect 15 0 9 0;
#X connect 16 0 11 0;
#X connect 17 0 7 0;
#X restore 688 397 pd switcher~;
#X connect 0 0 7 0;
#X connect 0 0 14 0;
#X connect 1 0 0 0;
#X connect 2 0 3 0;
#X connect 3 0 4 0;
#X connect 4 0 5 0;
#X connect 5 0 47 0;
#X connect 5 1 45 0;
#X connect 6 0 49 0;
#X connect 7 0 8 0;
#X connect 8 0 9 0;
#X connect 9 0 10 0;
#X connect 9 1 11 0;
#X connect 9 1 24 0;
#X connect 9 2 12 0;
#X connect 9 3 13 0;
#X connect 11 0 22 0;
#X connect 12 0 25 0;
#X connect 13 0 23 0;
#X connect 14 0 18 0;
#X connect 14 1 16 0;
#X connect 14 2 15 0;
#X connect 14 3 17 0;
#X connect 14 4 36 0;
#X connect 23 0 19 0;
#X connect 24 0 26 0;
#X connect 25 0 50 0;
#X connect 26 0 27 0;
#X connect 27 0 25 1;
#X connect 28 0 29 0;
#X connect 28 0 30 0;
#X connect 30 0 31 0;
#X connect 30 0 35 0;
#X connect 31 0 30 1;
#X connect 32 0 30 0;
#X connect 33 0 32 0;
#X connect 34 0 30 0;
#X connect 36 0 28 0;
#X connect 36 1 38 0;
#X connect 38 0 39 0;
#X connect 39 0 37 0;
#X connect 40 0 66 0;
#X connect 43 0 44 0;
#X connect 44 0 42 0;
#X connect 45 0 6 0;
#X connect 46 0 48 0;
#X connect 47 0 46 0;
#X connect 51 0 24 1;
#X connect 51 0 62 0;
#X connect 52 0 68 0;
#X connect 53 0 69 0;
#X connect 54 0 70 0;
#X connect 56 0 67 1;
#X connect 57 0 71 1;
#X connect 58 0 72 1;
#X connect 60 0 61 0;
#X connect 61 0 59 1;
#X connect 66 0 41 0;
#X connect 67 0 64 0;
#X connect 67 1 65 0;
#X connect 67 2 55 0;
#X connect 67 3 20 0;
#X connect 67 4 21 0;
#X connect 68 0 67 0;
#X connect 69 0 71 0;
#X connect 70 0 72 0;
#X connect 71 0 64 0;
#X connect 71 1 65 0;
#X connect 71 2 55 0;
#X connect 71 3 20 0;
#X connect 71 4 21 0;
#X connect 72 0 64 0;
#X connect 72 1 65 0;
#X connect 72 2 55 0;
#X connect 72 3 20 0;
#X connect 72 4 21 0;
#X restore 278 153 pd ctl;
#X obj 220 211 r on;
#X obj 56 66 tgl 15 0 empty empty empty 17 7 0 10 #fcfcfc #000000 #000000 0 1;
#X obj 19 90 rungler one;
#X obj 160 90 rungler two;
#X obj 197 66 tgl 15 0 empty empty empty 17 7 0 10 #fcfcfc #000000 #000000 0 1;
#X obj 234 18 r~ osc1;
#X obj 160 18 r~ osc2;
#X floatatom 128 182 5 1 12 0 - - - 0;
#X obj 128 154 r shaper;
#X obj 56 43 r r1-loop;
#X obj 197 43 r r2-loop;
#N canvas 804 928 473 383 rev&out 0;
#X obj 221 323 dac~;
#X obj 264 204 line~;
#X obj 246 231 *~;
#X obj 150 231 *~;
#X obj 264 25 inlet;
#X obj 35 25 inlet~;
#X obj 93 25 inlet~;
#X obj 168 25 inlet;
#X obj 168 56 dbtorms;
#X obj 168 86 pack 0 50;
#X obj 168 114 line~;
#X obj 35 144 *~;
#X obj 150 144 *~;
#X obj 149 291 clip~ -1 1;
#X obj 246 291 clip~ -1 1;
#X obj 35 114 vcf~ 1;
#X obj 93 114 vcf~ 1;
#X obj 44 56 pack 0 50;
#X obj 44 86 line~;
#X obj 117 86 + 1000;
#X obj 117 56 * 80;
#X obj 35 180 *~ -0.7;
#X obj 207 181 *~ -0.7;
#X obj 150 180 *~ 0.3;
#X obj 93 180 *~ 0.3;
#X msg 287 126 0;
#X obj 287 150 pack 0 100;
#X obj 354 123 r release;
#X obj 264 49 sel 1 0;
#X obj 173 261 rev2~ 84 80 5000 30;
#X msg 264 97 0.25 50;
#X connect 1 0 2 1;
#X connect 1 0 3 1;
#X connect 2 0 14 0;
#X connect 2 0 29 0;
#X connect 3 0 13 0;
#X connect 3 0 29 0;
#X connect 4 0 28 0;
#X connect 5 0 15 0;
#X connect 6 0 16 0;
#X connect 7 0 8 0;
#X connect 7 0 20 0;
#X connect 8 0 9 0;
#X connect 9 0 10 0;
#X connect 10 0 12 1;
#X connect 10 0 11 1;
#X connect 11 0 21 0;
#X connect 11 0 23 0;
#X connect 12 0 22 0;
#X connect 12 0 24 0;
#X connect 13 0 0 0;
#X connect 14 0 0 1;
#X connect 15 0 11 0;
#X connect 16 0 12 0;
#X connect 17 0 18 0;
#X connect 18 0 15 1;
#X connect 18 0 16 1;
#X connect 19 0 17 0;
#X connect 20 0 19 0;
#X connect 21 0 3 0;
#X connect 22 0 2 0;
#X connect 23 0 2 0;
#X connect 24 0 3 0;
#X connect 25 0 26 0;
#X connect 26 0 1 0;
#X connect 27 0 26 1;
#X connect 28 0 30 0;
#X connect 28 1 25 0;
#X connect 29 0 13 0;
#X connect 29 1 14 0;
#X connect 30 0 1 0;
#X restore 83 258 pd rev&out;
#X f 20;
#N canvas 1632 563 825 566 oscillators 0;
#X obj 44 54 osc~;
#X obj 54 81 s~ osc1;
#X obj 237 54 osc~;
#X obj 247 81 s~ osc2;
#X obj 44 109 expr~ if($v1>$v2 \, -0.5 \, 0.5);
#X obj 44 239 +~;
#X obj 188 144 samphold~;
#X obj 188 170 s~ sh;
#X obj 114 342 outlet~;
#X obj 237 24 r~ mod_osc2;
#X obj 44 24 r~ mod_osc1;
#X obj 62 164 r~ one-RUN;
#X obj 114 277 +~;
#X obj 132 202 r~ one-XOR;
#X obj 132 228 -~ 0.5;
#X obj 62 190 -~ 0.5;
#X obj 132 252 *~ 0.2;
#X obj 62 214 *~ -0.5;
#X obj 114 310 hip~ 8;
#X obj 44 133 *~ 0.4;
#N canvas 0 22 450 278 (subpatch) 0;
#X array scope2 4410 float 2;
#X coords 0 1 4410 -1 200 140 1 0 0;
#X restore 525 206 graph;
#X obj 234 397 tgl 15 0 empty empty empty 17 7 0 10 #fcfcfc #000000 #000000 0 1;
#X obj 233 421 metro 100;
#X obj 311 421 tabwrite~ scope2;
#X connect 0 0 1 0;
#X connect 0 0 4 0;
#X connect 0 0 6 0;
#X connect 2 0 3 0;
#X connect 2 0 4 1;
#X connect 2 0 6 1;
#X connect 4 0 19 0;
#X connect 5 0 12 0;
#X connect 6 0 7 0;
#X connect 6 0 23 0;
#X connect 9 0 2 0;
#X connect 10 0 0 0;
#X connect 11 0 15 0;
#X connect 12 0 18 0;
#X connect 13 0 14 0;
#X connect 14 0 16 0;
#X connect 15 0 17 0;
#X connect 16 0 12 1;
#X connect 17 0 5 1;
#X connect 18 0 8 0;
#X connect 19 0 5 0;
#X connect 21 0 22 0;
#X connect 22 0 23 0;
#X restore 19 126 pd oscillators;
#N canvas 607 590 425 300 filter&shaper 0;
#X obj 186 215 bob~;
#X obj 38 215 bob~;
#X obj 211 25 loadbang;
#X msg 211 49 3.8;
#X obj 150 49 / 10;
#X obj 38 25 inlet~;
#X obj 309 95 inlet;
#X obj 150 25 inlet;
#X obj 38 263 outlet~;
#X obj 186 263 outlet~;
#X obj 50 156 r~ f1;
#X obj 198 156 r~ f2;
#X text 42 4 input;
#X text 165 4 q;
#X text 330 74 shape;
#X obj 186 239 expr~ sin($v1*$v2);
#X obj 38 239 expr~ sin($v1*$v2);
#X obj 309 129 pack 0 50;
#X obj 309 153 line~;
#X obj 161 128 r~ ctl-shaper;
#X obj 63 128 r~ ctl-q;
#X obj 369 106 r lag;
#X obj 211 72 pack 0 50;
#X obj 211 96 line~;
#X obj 271 49 r lag;
#N canvas 1907 375 450 300 range 0;
#X obj 78 148 outlet~;
#X obj 78 43 inlet~;
#X obj 78 78 max~ 0.1;
#X obj 78 113 min~ 7;
#X connect 1 0 2 0;
#X connect 2 0 3 0;
#X connect 3 0 0 0;
#X restore 62 185 pd range;
#X connect 0 0 15 0;
#X connect 1 0 16 0;
#X connect 2 0 3 0;
#X connect 3 0 22 0;
#X connect 4 0 22 0;
#X connect 5 0 1 0;
#X connect 5 0 0 0;
#X connect 6 0 17 0;
#X connect 7 0 4 0;
#X connect 10 0 1 1;
#X connect 11 0 0 1;
#X connect 15 0 9 0;
#X connect 16 0 8 0;
#X connect 17 0 18 0;
#X connect 18 0 15 1;
#X connect 18 0 16 1;
#X connect 19 0 15 1;
#X connect 19 0 16 1;
#X connect 20 0 25 0;
#X connect 21 0 17 1;
#X connect 22 0 23 0;
#X connect 23 0 25 0;
#X connect 24 0 22 1;
#X connect 25 0 1 2;
#X connect 25 0 0 2;
#X restore 19 211 pd filter&shaper;
#X floatatom 73 184 5 0 500 0 - - - 0;
#X obj 73 154 r q;
#N canvas 1042 31 1283 829 presets 0;
#X obj 33 48 loadbang;
#X obj 1101 169 r on-x;
#X obj 1034 56 r r1-loop-x;
#X obj 1123 56 r r2-loop-x;
#X floatatom 1101 195 5 0 0 0 - - - 0;
#X floatatom 1034 82 5 0 0 0 - - - 0;
#X floatatom 1123 82 5 0 0 0 - - - 0;
#X obj 1101 297 send toGUI;
#X msg 1034 138 list /loop1 set \$1;
#X msg 1123 108 list /loop2 set \$1;
#X msg 1101 270 list /play set \$1;
#X msg 1035 221 list /lockx set \$1;
#X obj 1035 169 r lockxx;
#X floatatom 1035 195 5 0 0 0 - - - 0;
#X obj 340 15 r menuupd;
#X obj 340 40 route 1 2 3 4 5 6 7 8 9 10 11 12 13 14 15 16 17 18 19 20;
#X obj 1101 244 min 1;
#N canvas 1025 108 432 548 test 0;
#X obj 253 105 r lag-x;
#X obj 253 171 r f-sh-x;
#X obj 253 149 r f-run2-x;
#X obj 253 127 r f-run1-x;
#X obj 253 193 r f1-offs-x;
#X obj 253 215 r f2-offs-x;
#X obj 254 237 r o1-run-x;
#X obj 255 325 r o2-run-x;
#X obj 255 347 r o2-fm-x;
#X obj 255 369 r o2-offs-x;
#X obj 255 303 r o1-sh-x;
#X obj 255 281 r o1-offs-x;
#X obj 256 391 r q-x;
#X obj 256 413 r shaper-x;
#X floatatom 114 123 5 0 0 0 - - - 0;
#X floatatom 114 145 5 0 0 0 - - - 0;
#X floatatom 114 167 5 0 0 0 - - - 0;
#X floatatom 114 189 5 0 0 0 - - - 0;
#X floatatom 114 211 5 0 0 0 - - - 0;
#X floatatom 114 233 5 0 0 0 - - - 0;
#X floatatom 114 255 5 0 0 0 - - - 0;
#X floatatom 114 277 5 0 0 0 - - - 0;
#X floatatom 114 299 5 0 0 0 - - - 0;
#X floatatom 114 321 5 0 0 0 - - - 0;
#X floatatom 114 343 5 0 0 0 - - - 0;
#X floatatom 114 365 5 0 0 0 - - - 0;
#X floatatom 114 387 5 0 0 0 - - - 0;
#X floatatom 114 409 5 0 0 0 - - - 0;
#X floatatom 114 431 5 0 0 0 - - - 0;
#X obj 255 258 r o1-fm-x;
#X text 152 122 lag-x;
#X text 152 144 f-run1-x;
#X text 154 430 shaper-x;
#X text 155 408 q-x;
#X text 154 387 o2-offs-x;
#X text 153 365 o2-fm-x;
#X text 151 167 f-run2-x;
#X text 154 189 f-sh-x;
#X text 154 212 f1-offs-x;
#X text 153 233 f2-offs-x;
#X text 153 255 o1-run-x;
#X text 153 276 o1-fm-x;
#X text 152 300 o1-offs-x;
#X text 155 322 o1-sh-x;
#X text 153 343 o2-run-x;
#X connect 0 0 14 0;
#X connect 1 0 17 0;
#X connect 2 0 16 0;
#X connect 3 0 15 0;
#X connect 4 0 18 0;
#X connect 5 0 19 0;
#X connect 6 0 20 0;
#X connect 7 0 24 0;
#X connect 8 0 25 0;
#X connect 9 0 26 0;
#X connect 10 0 23 0;
#X connect 11 0 22 0;
#X connect 12 0 27 0;
#X connect 13 0 28 0;
#X connect 29 0 21 0;
#X coords 0 -1 1 1 130 360 1 100 100;
#X restore 885 71 pd test;
#X text 864 781 q \, shaper \, filter freq \, osc1 freq \, osc2 freq;
#X msg 34 439 \; lag 15000 \; f-run1 0 \; f-run2 46 \; f-sh 1 \; f1-offs 76 \; f2-offs 38 \; o1-run 58 \; o1-fm 23 \; o1-offs -13 \; o1-sh -32 \; o2-run 55 \; o2-fm -48 \; o2-offs 57 \; q 30 \; shaper 1 \; on 1 \; r1-loop 1 \; r2-loop 1 \; lockx 0 \; s_touchx 0 0 0 1 0 \; s_tiltx 1 0 0 0 0 \; s_tilty 0 0 1 0 0 \; release 100;
#X msg 875 439 \; lag 45000 \; f-run1 0 \; f-run2 0 \; f-sh 0 \; f1-offs 28 \; f2-offs 81 \; o1-run -5 \; o1-fm 10 \; o1-offs -19 \; o1-sh 0 \; o2-run 10 \; o2-fm 7 \; o2-offs -53 \; q 39 \; shaper 5 \; on 1 \; r1-loop 0 \; r2-loop 0 \; lockx 0 \; s_touchx 0 0 0 0 1 \; s_tiltx 1 0 0 0 0 \; s_tilty 0 0 0 1 0 \; release 100;
#X msg 527 439 \; lag 15000 \; f-run1 4 \; f-run2 0 \; f-sh 40 \; f1-offs 46 \; f2-offs 48 \; o1-run -10 \; o1-fm 30 \; o1-offs -68 \; o1-sh 10 \; o2-run 7 \; o2-fm 37 \; o2-offs -13 \; q 39 \; shaper 8 \; on 1 \; r1-loop 1 \; r2-loop 0 \; lockx 0 \; s_touchx 0 0 0 0 1 \; s_tiltx 1 0 0 0 0 \; s_tilty 0 0 0 1 0 \; release 100;
#X msg 192 439 \; lag 15000 \; f-run1 0 \; f-run2 49 \; f-sh 59 \; f1-offs 76 \; f2-offs 33 \; o1-run 0 \; o1-fm 0 \; o1-offs -7 \; o1-sh 70 \; o2-run 0 \; o2-fm 0 \; o2-offs -50 \; q 35 \; shaper 5 \; on 1 \; r1-loop 1 \; r2-loop 1 \; lockx 0 \; s_touchx 0 0 0 1 1 \; s_tiltx 1 0 0 0 0 \; s_tilty 0 0 1 0 0 \; release 100;
#X msg 353 439 \; lag 15000 \; f-run1 0 \; f-run2 13 \; f-sh 73 \; f1-offs 26 \; f2-offs 28 \; o1-run 0 \; o1-fm 30 \; o1-offs -8 \; o1-sh 0 \; o2-run 0 \; o2-fm 47 \; o2-offs -23 \; q 26 \; shaper 7 \; on 1 \; r1-loop 0 \; r2-loop 0 \; lockx 0 \; s_touchx 0 0 0 0 1 \; s_tiltx 1 0 0 0 0 \; s_tilty 0 0 0 1 0 \; release 100;
#X msg 711 439 \; lag 25000 \; f-run1 0 \; f-run2 0 \; f-sh 0 \; f1-offs 44 \; f2-offs 75 \; o1-run -5 \; o1-fm 0 \; o1-offs -28 \; o1-sh 10 \; o2-run 10 \; o2-fm 7 \; o2-offs -63 \; q 39 \; shaper 2 \; on 1 \; r1-loop 0 \; r2-loop 1 \; lockx 0 \; s_touchx 0 0 0 0 1 \; s_tiltx 1 0 0 0 0 \; s_tilty 0 0 0 1 0 \; release 100;
#X msg 34 80 \; lag 50 \; f-run1 0 \; f-run2 26 \; f-sh -7 \; f1-offs 30 \; f2-offs 41 \; o1-run 0 \; o1-fm 0 \; o1-offs -35 \; o1-sh 15 \; o2-run 0 \; o2-fm 0.01 \; o2-offs 64 \; q 26 \; shaper 4 \; on 0 \; r1-loop 1 \; r2-loop 0 \; lockx 1 \; s_touchx 0 0 0 0 1 \; s_tiltx 0 0 0 1 0 \; s_tilty 0 0 1 0 0 \; release 2000;
#X msg 205 80 \; lag 10000 \; f-run1 13 \; f-run2 -12 \; f-sh 3 \; f1-offs 35 \; f2-offs 39 \; o1-run 30 \; o1-fm 0 \; o1-offs -39 \; o1-sh 0 \; o2-run 30 \; o2-fm 0 \; o2-offs -50 \; q 39 \; shaper 5 \; on 1 \; r1-loop 1 \; r2-loop 1 \; lockx 0 \; s_touchx 0 0 1 0 0 \; s_tiltx 0 0 0 1 0 \; s_tilty 0 1 0 0 0;
#X msg 547 80 \; lag 15000 \; f-run1 35 \; f-run2 22 \; f-sh 3 \; f1-offs 32 \; f2-offs 37 \; o1-run 27 \; o1-fm 0 \; o1-offs -48 \; o1-sh 10 \; o2-run 26 \; o2-fm 3 \; o2-offs 73 \; q 35 \; shaper 5 \; on 1 \; r1-loop 0 \; r2-loop 1 \; lockx 0 \; s_touchx 0 0 0 0 1 \; s_tiltx 1 0 0 0 0 \; s_tilty 0 0 1 0 0 \; release 100;
#X msg 719 80 \; lag 15000 \; f-run1 20 \; f-run2 22 \; f-sh 15 \; f1-offs 68 \; f2-offs 52 \; o1-run 54 \; o1-fm 14 \; o1-offs -64 \; o1-sh 41 \; o2-run 60 \; o2-fm 15 \; o2-offs -47 \; q 39.5 \; shaper 1 \; on 1 \; r1-loop 1 \; r2-loop 1 \; lockx 0 \; s_touchx 0 0 0 1 1 \; s_tiltx 1 0 0 0 0 \; s_tilty 0 1 0 0 0 \; release 100;
#X msg 1038 440 \; lag 65000 \; f-run1 60 \; f-run2 -60 \; f-sh 10 \; f1-offs 40 \; f2-offs 93 \; o1-run -5 \; o1-fm 40 \; o1-offs -9 \; o1-sh 20 \; o2-run 10 \; o2-fm 27 \; o2-offs -13 \; q 29 \; shaper 8 \; on 1 \; r1-loop 1 \; r2-loop 0 \; lockx 0 \; s_touchx 0 0 0 0 1 \; s_tiltx 1 0 0 0 0 \; s_tilty 0 0 1 1 0 \; release 100;
#X msg 376 75 \; lag 10000 \; f-run1 20 \; f-run2 22 \; f-sh 15 \; f1-offs 68 \; f2-offs 52 \; o1-run 30 \; o1-fm 0 \; o1-offs -20 \; o1-sh 0 \; o2-run 30 \; o2-fm 0 \; o2-offs -23 \; q 20 \; shaper 6 \; on 1 \; r1-loop 0 \; r2-loop 0 \; lockx 0 \; s_touchx 0 0 1 1 0 \; s_tiltx 0 0 0 0 1 \; s_tilty 0 1 0 0 0 \; release 300;
#X connect 0 0 25 0;
#X connect 1 0 4 0;
#X connect 2 0 5 0;
#X connect 3 0 6 0;
#X connect 4 0 16 0;
#X connect 5 0 8 0;
#X connect 6 0 9 0;
#X connect 8 0 7 0;
#X connect 9 0 7 0;
#X connect 10 0 7 0;
#X connect 11 0 7 0;
#X connect 12 0 13 0;
#X connect 13 0 11 0;
#X connect 14 0 15 0;
#X connect 15 0 25 0;
#X connect 15 1 26 0;
#X connect 15 2 30 0;
#X connect 15 3 27 0;
#X connect 15 4 28 0;
#X connect 15 5 19 0;
#X connect 15 6 22 0;
#X connect 15 7 23 0;
#X connect 15 8 21 0;
#X connect 15 9 24 0;
#X connect 15 10 20 0;
#X connect 15 11 29 0;
#X connect 16 0 10 0;
#X restore 278 178 pd presets;
#N canvas 172 897 1643 363 mod_matrix 0;
#X obj 1190 248 s~ mod_osc2;
#X obj 805 248 s~ mod_osc1;
#X obj 805 197 mtof~;
#X floatatom 823 81 5 -130 130 0 - - - 0;
#X obj 1190 197 mtof~;
#X floatatom 1356 81 5 -130 130 0 - - - 0;
#X obj 396 197 mtof~;
#X floatatom 545 81 5 0 0 0 - - - 0;
#X obj 266 197 mtof~;
#X floatatom 145 81 5 0 0 0 - - - 0;
#X floatatom 283 81 5 0 0 0 - - - 0;
#X floatatom 1220 81 5 0 0 0 - - - 0;
#X floatatom 684 81 5 0 0 0 - - - 0;
#X obj 684 53 r o1-offs;
#X obj 266 23 r~ one-RUN;
#X obj 805 23 r~ one-RUN;
#X obj 396 23 r~ two-RUN;
#X obj 266 158 *~;
#X obj 805 158 *~;
#X obj 1338 158 *~;
#X obj 1220 53 r o2-offs;
#X obj 933 23 r~ osc2;
#X obj 1466 23 r~ osc1;
#X floatatom 951 81 5 0 0 0 - - - 0;
#X obj 933 158 *~;
#X floatatom 1484 80 5 0 0 0 - - - 0;
#X obj 1466 158 *~;
#X floatatom 31 81 5 0 0 0 - - - 0;
#X obj 545 53 r f2-offs;
#X obj 145 53 r f1-offs;
#X obj 31 53 r f-sh;
#X floatatom 1099 81 5 0 0 0 - - - 0;
#X obj 1081 158 *~;
#X obj 1099 53 r o1-sh;
#X obj 1338 23 r~ two-RUN;
#X obj 1081 23 r~ sh;
#X obj 823 53 r o1-run;
#X obj 1356 53 r o2-run;
#X obj 266 248 s~ f1;
#X obj 396 248 s~ f2;
#X obj 842 158 r~ ctl-o1;
#X obj 1229 158 r~ ctl-o2;
#X floatatom 414 81 5 0 0 0 - - - 0;
#X obj 396 158 *~;
#X obj 283 53 r f-run1;
#X obj 414 53 r f-run2;
#X obj 13 158 *~;
#X obj 13 23 r~ sh;
#X obj 1484 106 pack 0 30;
#X obj 1484 130 line~;
#X obj 1356 106 pack 0 30;
#X obj 1356 130 line~;
#X obj 1220 106 pack 0 30;
#X obj 1220 130 line~;
#X obj 1099 106 pack 0 30;
#X obj 1099 130 line~;
#X obj 951 106 pack 0 30;
#X obj 951 130 line~;
#X obj 823 106 pack 0 30;
#X obj 823 130 line~;
#X obj 684 106 pack 0 30;
#X obj 684 130 line~;
#X obj 545 106 pack 0 30;
#X obj 545 130 line~;
#X obj 414 106 pack 0 30;
#X obj 414 130 line~;
#X obj 283 106 pack 0 30;
#X obj 283 130 line~;
#X obj 145 106 pack 0 30;
#X obj 145 130 line~;
#X obj 31 106 pack 0 30;
#X obj 31 130 line~;
#X obj 1544 81 r lag;
#X obj 1159 81 r lag;
#X obj 1280 81 r lag;
#X obj 1416 81 r lag;
#X obj 1011 81 r lag;
#X obj 605 81 r lag;
#X obj 205 81 r lag;
#X obj 343 81 r lag;
#X obj 474 81 r lag;
#X obj 91 81 r lag;
#X obj 744 81 r lag;
#X obj 883 81 r lag;
#X obj 318 158 r~ ctl-f;
#X obj 1560 106 s lag-x;
#X obj 334 130 s f-run1-x;
#X obj 463 131 s f-run2-x;
#X obj 78 130 s f-sh-x;
#X obj 193 131 s f1-offs-x;
#X obj 591 130 s f2-offs-x;
#X obj 868 130 s o1-run-x;
#X obj 733 132 s o1-offs-x;
#X obj 1145 130 s o1-sh-x;
#X obj 1401 130 s o2-run-x;
#X obj 1264 130 s o2-offs-x;
#N canvas 1907 375 450 300 range 0;
#X obj 78 148 outlet~;
#X obj 78 43 inlet~;
#X obj 78 78 max~ 0;
#X obj 78 113 min~ 18000;
#X connect 1 0 2 0;
#X connect 2 0 3 0;
#X connect 3 0 0 0;
#X restore 805 223 pd range;
#N canvas 1907 375 450 300 range 0;
#X obj 78 148 outlet~;
#X obj 78 43 inlet~;
#X obj 78 78 max~ 0;
#X obj 78 113 min~ 18000;
#X connect 1 0 2 0;
#X connect 2 0 3 0;
#X connect 3 0 0 0;
#X restore 1190 223 pd range;
#N canvas 1907 375 450 300 range 0;
#X obj 78 148 outlet~;
#X obj 78 43 inlet~;
#X obj 78 113 min~ 15000;
#X obj 78 78 max~ 30;
#X connect 1 0 3 0;
#X connect 2 0 0 0;
#X connect 3 0 2 0;
#X restore 266 223 pd range;
#N canvas 1907 375 450 300 range 0;
#X obj 78 148 outlet~;
#X obj 78 43 inlet~;
#X obj 78 113 min~ 15000;
#X obj 78 78 max~ 30;
#X connect 1 0 3 0;
#X connect 2 0 0 0;
#X connect 3 0 2 0;
#X restore 396 223 pd range;
#X msg 90 227 \; lag 100;
#X obj 310 421 tabwrite~ scope;
#N canvas 0 22 450 278 (subpatch) 0;
#X array scope 4410 float 2;
#X coords 0 1 4410 -1 200 140 1;
#X restore 524 206 graph;
#X obj 232 397 tgl 15 0 empty empty empty 17 7 0 10 #fcfcfc #000000 #000000 0 1;
#X obj 232 421 metro 100;
#N canvas 0 22 450 278 (subpatch) 0;
#X array scope1 4410 float 2;
#X coords 0 1 4410 -1 200 140 1 0 0;
#X restore 938 206 graph;
#X obj 378 452 tabwrite~ scope1;
#X obj 167 397 loadbang;
#X msg 167 421 1;
#X obj 951 53 r o2-fm;
#X obj 1484 53 r o1-fm;
#X obj 995 132 s o2-fm-x;
#X obj 1534 131 s o1-fm-x;
#X connect 2 0 96 0;
#X connect 3 0 58 0;
#X connect 3 0 91 0;
#X connect 4 0 97 0;
#X connect 5 0 50 0;
#X connect 5 0 94 0;
#X connect 6 0 99 0;
#X connect 7 0 62 0;
#X connect 7 0 90 0;
#X connect 8 0 98 0;
#X connect 9 0 68 0;
#X connect 9 0 89 0;
#X connect 10 0 66 0;
#X connect 10 0 86 0;
#X connect 11 0 52 0;
#X connect 11 0 95 0;
#X connect 12 0 60 0;
#X connect 12 0 92 0;
#X connect 13 0 12 0;
#X connect 14 0 17 0;
#X connect 14 0 101 0;
#X connect 15 0 18 0;
#X connect 16 0 43 0;
#X connect 16 0 106 0;
#X connect 17 0 8 0;
#X connect 17 0 6 0;
#X connect 18 0 2 0;
#X connect 19 0 4 0;
#X connect 20 0 11 0;
#X connect 21 0 24 0;
#X connect 22 0 26 0;
#X connect 23 0 56 0;
#X connect 23 0 111 0;
#X connect 24 0 2 0;
#X connect 25 0 48 0;
#X connect 25 0 112 0;
#X connect 26 0 4 0;
#X connect 27 0 70 0;
#X connect 27 0 88 0;
#X connect 28 0 7 0;
#X connect 29 0 9 0;
#X connect 30 0 27 0;
#X connect 31 0 54 0;
#X connect 31 0 93 0;
#X connect 32 0 2 0;
#X connect 33 0 31 0;
#X connect 34 0 19 0;
#X connect 35 0 32 0;
#X connect 36 0 3 0;
#X connect 37 0 5 0;
#X connect 40 0 2 0;
#X connect 41 0 4 0;
#X connect 42 0 64 0;
#X connect 42 0 87 0;
#X connect 43 0 6 0;
#X connect 43 0 8 0;
#X connect 44 0 10 0;
#X connect 45 0 42 0;
#X connect 46 0 8 0;
#X connect 46 0 6 0;
#X connect 47 0 46 0;
#X connect 48 0 49 0;
#X connect 49 0 26 1;
#X connect 50 0 51 0;
#X connect 51 0 19 1;
#X connect 52 0 53 0;
#X connect 53 0 4 0;
#X connect 54 0 55 0;
#X connect 55 0 32 1;
#X connect 56 0 57 0;
#X connect 57 0 24 1;
#X connect 58 0 59 0;
#X connect 59 0 18 1;
#X connect 60 0 61 0;
#X connect 61 0 2 0;
#X connect 62 0 63 0;
#X connect 63 0 6 0;
#X connect 64 0 65 0;
#X connect 65 0 43 1;
#X connect 66 0 67 0;
#X connect 67 0 17 1;
#X connect 68 0 69 0;
#X connect 69 0 8 0;
#X connect 70 0 71 0;
#X connect 71 0 46 1;
#X connect 72 0 48 1;
#X connect 72 0 85 0;
#X connect 73 0 54 1;
#X connect 74 0 52 1;
#X connect 75 0 50 1;
#X connect 76 0 56 1;
#X connect 77 0 62 1;
#X connect 78 0 68 1;
#X connect 79 0 66 1;
#X connect 80 0 64 1;
#X connect 81 0 70 1;
#X connect 82 0 60 1;
#X connect 83 0 58 1;
#X connect 84 0 8 0;
#X connect 84 0 6 0;
#X connect 96 0 1 0;
#X connect 97 0 0 0;
#X connect 98 0 38 0;
#X connect 99 0 39 0;
#X connect 103 0 104 0;
#X connect 104 0 101 0;
#X connect 104 0 106 0;
#X connect 107 0 108 0;
#X connect 108 0 103 0;
#X connect 109 0 23 0;
#X connect 110 0 25 0;
#X restore 277 128 pd mod_matrix;
#X obj 174 210 r vol;
#X floatatom 174 234 5 0 120 0 - - - 0;
#X obj 104 66 s r1-loop-x;
#X obj 243 66 s r2-loop-x;
#X obj 26 182 s q-x;
#X obj 176 182 s shaper-x;
#X obj 247 234 s on-x;
#X connect 0 0 15 3;
#X connect 0 0 28 0;
#X connect 1 0 6 0;
#X connect 2 0 6 2;
#X connect 4 0 0 0;
#X connect 5 0 6 1;
#X connect 5 0 24 0;
#X connect 8 0 7 1;
#X connect 8 0 25 0;
#X connect 9 0 7 2;
#X connect 10 0 7 0;
#X connect 11 0 17 2;
#X connect 11 0 27 0;
#X connect 12 0 11 0;
#X connect 13 0 5 0;
#X connect 14 0 8 0;
#X connect 16 0 17 0;
#X connect 17 0 15 0;
#X connect 17 1 15 1;
#X connect 18 0 17 1;
#X connect 18 0 26 0;
#X connect 19 0 18 0;
#X connect 22 0 23 0;
#X connect 23 0 15 2;
