#N canvas 1223 121 702 461 12;
#X obj 24 299 samphold~;
#X obj 103 299 samphold~;
#X obj 182 299 samphold~;
#X obj 262 299 samphold~;
#X obj 342 299 samphold~;
#X obj 422 299 samphold~;
#X obj 502 300 samphold~;
#X obj 584 299 samphold~;
#X obj 182 106 clip~ 0 1;
#X obj 24 228 expr~ ($v1*-1)+1;
#X obj 77 405 s~ \$1-XOR;
#X obj 448 405 s~ \$1-RUN;
#X obj 448 364 expr~ (($v1/8)+($v2/4)+($v3/2));
#X obj 182 16 inlet~;
#X obj 481 16 inlet~;
#X obj 24 330 s~ \$1-1-sh;
#X obj 103 330 s~ \$1-2-sh;
#X obj 182 330 s~ \$1-3-sh;
#X obj 262 330 s~ \$1-4-sh;
#X obj 342 330 s~ \$1-5-sh;
#X obj 422 330 s~ \$1-6-sh;
#X obj 502 330 s~ \$1-7-sh;
#X obj 103 270 r~ \$1-1-sh;
#X obj 182 270 r~ \$1-2-sh;
#X obj 262 270 r~ \$1-3-sh;
#X obj 342 270 r~ \$1-4-sh;
#X obj 422 270 r~ \$1-5-sh;
#X obj 502 270 r~ \$1-6-sh;
#X obj 584 270 r~ \$1-7-sh;
#X obj 24 203 expr~ if($v1==$v2 \, 1 \, 0);
#X obj 189 144 expr~ if($v1<$v2 \, 1 \, 0);
#X obj 24 177 expr~ if($v1>$v2 \, 1 \, 0);
#X obj 24 106 clip~ 0 1;
#X obj 482 164 expr~ if($v1>0 \, 1 \, 0);
#X obj 307 16 inlet;
#X text 353 15 loop;
#X obj 182 78 *~ 0;
#X text 232 15 osc1;
#X text 535 15 osc2;
#X text 83 426 XOR out;
#X text 444 426 Rungler out;
#X obj 307 78 * -1;
#X obj 307 106 + 1;
#X obj 584 330 s~ \$1-8-sh;
#X obj 24 78 r~ \$1-8-sh;
#X obj 182 50 expr~ if($v1>0 \, 1 \, 0);
#X connect 0 0 15 0;
#X connect 1 0 16 0;
#X connect 2 0 17 0;
#X connect 3 0 18 0;
#X connect 4 0 19 0;
#X connect 5 0 12 0;
#X connect 5 0 20 0;
#X connect 6 0 12 1;
#X connect 6 0 21 0;
#X connect 7 0 12 2;
#X connect 7 0 43 0;
#X connect 8 0 30 1;
#X connect 8 0 31 1;
#X connect 9 0 0 0;
#X connect 9 0 10 0;
#X connect 12 0 11 0;
#X connect 13 0 45 0;
#X connect 14 0 33 0;
#X connect 22 0 1 0;
#X connect 23 0 2 0;
#X connect 24 0 3 0;
#X connect 25 0 4 0;
#X connect 26 0 5 0;
#X connect 27 0 6 0;
#X connect 28 0 7 0;
#X connect 29 0 9 0;
#X connect 30 0 29 1;
#X connect 31 0 29 0;
#X connect 32 0 30 0;
#X connect 32 0 31 0;
#X connect 33 0 0 1;
#X connect 33 0 7 1;
#X connect 33 0 6 1;
#X connect 33 0 5 1;
#X connect 33 0 4 1;
#X connect 33 0 3 1;
#X connect 33 0 2 1;
#X connect 33 0 1 1;
#X connect 34 0 41 0;
#X connect 36 0 8 0;
#X connect 41 0 42 0;
#X connect 42 0 36 1;
#X connect 44 0 32 0;
#X connect 45 0 36 0;
