#N canvas 955 370 253 226 12;
#X obj 29 31 inlet;
#X obj 28 151 outlet;
#X obj 28 127 expr $f1 + \$3;
#X obj 28 103 expr $f1 * (\$4 - \$3);
#X obj 28 79 expr $f1 / (\$2 - \$1);
#X obj 28 55 expr $f1 - \$1;
#X connect 0 0 5 0;
#X connect 2 0 1 0;
#X connect 3 0 2 0;
#X connect 4 0 3 0;
#X connect 5 0 4 0;
