#N canvas 737 284 471 244 10;
#X obj 57 109 dac~;
#N canvas 291 34 964 390 synth 0;
#X obj 621 184 line~;
#X obj 621 212 *~;
#X obj 671 184 line~;
#X obj 621 132 r amp;
#X obj 671 132 r playStop;
#X obj 148 20 r note;
#X obj 546 312 outlet~;
#X obj 124 187 osc~;
#X obj 206 187 osc~;
#X obj 290 187 osc~;
#X obj 367 187 osc~;
#X obj 461 187 osc~;
#X obj 221 36 r fcoef2;
#X obj 305 36 r fcoef3;
#X obj 382 36 r fcoef4;
#X obj 476 36 r fcoef5;
#X obj 124 276 amp-mod 0.07;
#X obj 290 276 amp-mod 0.1;
#X obj 206 276 amp-mod 0.05;
#X obj 367 276 amp-mod 0.035;
#X obj 461 276 amp-mod 0.08;
#X obj 547 187 osc~;
#X obj 569 36 r fcoef6;
#X obj 546 276 amp-mod 0.063;
#X obj 206 78 + 2;
#X obj 290 78 + 4;
#X obj 367 78 + 6;
#X obj 461 78 + 8;
#X obj 548 78 + 10;
#X obj 124 105 mtof;
#X obj 206 105 mtof;
#X obj 367 105 mtof;
#X obj 290 105 mtof;
#X obj 547 105 mtof;
#X obj 461 105 mtof;
#X obj 752 51 route 0 1 2 3 4 5;
#X msg 752 80 \; fcoef2 2 \; fcoef3 4 \; fcoef4 6 \; fcoef5 8 \; fcoef6
10 \;;
#X msg 768 170 \; fcoef2 4 \; fcoef3 8 \; fcoef4 12 \; fcoef5 16 \;
fcoef6 20 \;;
#X msg 787 260 \; fcoef2 6 \; fcoef3 12 \; fcoef4 18 \; fcoef5 24 \;
fcoef6 30 \;;
#X obj 124 251 *~;
#X obj 206 251 *~;
#X obj 290 251 *~;
#X obj 367 251 *~;
#X obj 461 251 *~;
#X obj 547 251 *~;
#X msg 827 79 \; fcoef2 8 \; fcoef3 16 \; fcoef4 24 \; fcoef5 32 \;
fcoef6 40 \;;
#X msg 844 168 \; fcoef2 10 \; fcoef3 20 \; fcoef4 30 \; fcoef5 40
\; fcoef6 50 \;;
#X obj 752 26 r preset;
#X msg 621 158 \$1 20;
#X msg 671 158 \$1 5;
#X obj 722 168 tgl 15 0 empty empty empty 17 7 0 10 -262144 -1 -1 0
1;
#X obj 40 21 r playStop;
#X obj 124 59 f;
#X obj 40 50 sel 1;
#X obj 165 389 bng 15 250 50 0 empty empty empty 17 7 0 10 -262144
-1 -1;
#X connect 0 0 1 0;
#X connect 1 0 39 1;
#X connect 1 0 40 1;
#X connect 1 0 41 1;
#X connect 1 0 42 1;
#X connect 1 0 43 1;
#X connect 1 0 44 1;
#X connect 2 0 1 1;
#X connect 3 0 48 0;
#X connect 4 0 49 0;
#X connect 4 0 50 0;
#X connect 5 0 52 1;
#X connect 7 0 39 0;
#X connect 8 0 40 0;
#X connect 9 0 41 0;
#X connect 10 0 42 0;
#X connect 11 0 43 0;
#X connect 12 0 24 1;
#X connect 13 0 25 1;
#X connect 14 0 26 1;
#X connect 15 0 27 1;
#X connect 16 0 6 0;
#X connect 17 0 6 0;
#X connect 18 0 6 0;
#X connect 19 0 6 0;
#X connect 20 0 6 0;
#X connect 21 0 44 0;
#X connect 22 0 28 1;
#X connect 23 0 6 0;
#X connect 24 0 30 0;
#X connect 25 0 32 0;
#X connect 26 0 31 0;
#X connect 27 0 34 0;
#X connect 28 0 33 0;
#X connect 29 0 7 0;
#X connect 30 0 8 0;
#X connect 31 0 10 0;
#X connect 32 0 9 0;
#X connect 33 0 21 0;
#X connect 34 0 11 0;
#X connect 35 0 36 0;
#X connect 35 1 37 0;
#X connect 35 2 38 0;
#X connect 35 3 45 0;
#X connect 35 4 46 0;
#X connect 39 0 16 0;
#X connect 40 0 18 0;
#X connect 41 0 17 0;
#X connect 42 0 19 0;
#X connect 43 0 20 0;
#X connect 44 0 23 0;
#X connect 47 0 35 0;
#X connect 48 0 0 0;
#X connect 49 0 2 0;
#X connect 51 0 53 0;
#X connect 52 0 29 0;
#X connect 52 0 24 0;
#X connect 52 0 25 0;
#X connect 52 0 26 0;
#X connect 52 0 27 0;
#X connect 52 0 28 0;
#X connect 53 0 52 0;
#X restore 57 43 pd synth;
#N canvas 1913 332 202 197 reverb 0;
#X obj 64 91 rev1~;
#X msg 118 55 50;
#X obj 118 20 loadbang;
#X obj 9 22 inlet~;
#X obj 9 146 outlet~;
#X obj 9 60 *~ 0.3;
#X obj 64 60 *~ 0.1;
#X obj 9 120 clip~ -1 1;
#X connect 0 0 7 0;
#X connect 1 0 0 1;
#X connect 2 0 1 0;
#X connect 3 0 6 0;
#X connect 3 0 5 0;
#X connect 5 0 7 0;
#X connect 6 0 0 0;
#X connect 7 0 4 0;
#X restore 57 75 pd reverb;
#N canvas 839 698 1138 363 gamepad_ctl 0;
#N canvas 119 121 450 278 (subpatch) 0;
#X array scale 22 float 3;
#A 0 2 4 6 8 10 12 14 16 18 20 22 24 26 28 30 32 34 36 38 40 42 44
;
#X coords 0 0 22 44 200 140 1 0 0;
#X restore 725 125 graph;
#X obj 725 39 loadbang;
#X msg 725 67 \; scale 0 2 4 6 8 10 12 14 16 18 20 22 24 26 28 30 32
34 36 38 40 42 44;
#X obj 139 75 hid 0;
#X msg 162 50 print;
#X msg 77 37 open 17;
#X obj 39 64 tgl 15 0 empty empty empty 17 7 0 10 -262144 -1 -1 1 1
;
#X obj 77 12 loadbang;
#X msg 39 38 1;
#X obj 139 98 route key abs;
#X obj 45 149 route btn_0 btn_1 btn_2 btn_3 btn_4 btn_5 btn_6 btn_7
btn_8 btn_9, f 66;
#X obj 460 151 route abs_x abs_y abs_z abs_rz;
#X floatatom 460 173 5 0 0 0 - - -, f 5;
#X floatatom 504 173 5 0 0 0 - - -, f 5;
#X floatatom 548 173 5 0 0 0 - - -, f 5;
#X floatatom 592 173 5 0 0 0 - - -, f 5;
#X obj 45 200 bng 15 250 50 0 empty empty empty 17 7 0 10 -262144 -1
-1;
#X obj 45 176 sel 1;
#X obj 84 200 bng 15 250 50 0 empty empty empty 17 7 0 10 -262144 -1
-1;
#X obj 84 176 sel 1;
#X obj 123 200 bng 15 250 50 0 empty empty empty 17 7 0 10 -262144
-1 -1;
#X obj 123 176 sel 1;
#X obj 162 200 bng 15 250 50 0 empty empty empty 17 7 0 10 -262144
-1 -1;
#X obj 162 176 sel 1;
#X obj 202 200 bng 15 250 50 0 empty empty empty 17 7 0 10 -262144
-1 -1;
#X obj 202 176 sel 1;
#X obj 241 200 bng 15 250 50 0 empty empty empty 17 7 0 10 -262144
-1 -1;
#X obj 241 176 sel 1;
#X msg 45 220 0;
#X msg 84 220 1;
#X msg 123 220 2;
#X msg 162 220 3;
#X msg 202 220 4;
#X msg 241 220 5;
#X obj 123 258 s preset;
#X obj 460 282 s note;
#X obj 460 233 tabread scale;
#X obj 320 191 s playStop;
#X obj 548 312 s amp;
#X obj 548 259 *;
#X obj 548 286 *;
#X obj 460 205 expr $f1*0.09;
#X obj 433 309 outlet;
#X obj 460 255 + 36;
#X obj 548 233 expr (255-$f1)*0.004;
#X text 151 28 <---------;
#X text 218 27 nacisnij print \, odnajdz nr swojego gamepada w konsoli
i wpisz ten nr przy message open. Byc moze trzeba tez zmienic nazwe
przycisku/kontrolera w obiektach route ponizej;
#X obj 84 96 print;
#X connect 1 0 2 0;
#X connect 3 0 9 0;
#X connect 3 0 47 0;
#X connect 4 0 3 0;
#X connect 5 0 3 0;
#X connect 6 0 3 0;
#X connect 7 0 5 0;
#X connect 7 0 8 0;
#X connect 8 0 6 0;
#X connect 9 0 10 0;
#X connect 9 1 11 0;
#X connect 10 0 17 0;
#X connect 10 1 19 0;
#X connect 10 2 21 0;
#X connect 10 3 23 0;
#X connect 10 4 25 0;
#X connect 10 5 27 0;
#X connect 10 7 37 0;
#X connect 11 0 12 0;
#X connect 11 1 13 0;
#X connect 11 2 14 0;
#X connect 11 3 15 0;
#X connect 12 0 41 0;
#X connect 14 0 44 0;
#X connect 16 0 28 0;
#X connect 17 0 16 0;
#X connect 18 0 29 0;
#X connect 19 0 18 0;
#X connect 20 0 30 0;
#X connect 21 0 20 0;
#X connect 22 0 31 0;
#X connect 23 0 22 0;
#X connect 24 0 32 0;
#X connect 25 0 24 0;
#X connect 26 0 33 0;
#X connect 27 0 26 0;
#X connect 28 0 34 0;
#X connect 29 0 34 0;
#X connect 30 0 34 0;
#X connect 31 0 34 0;
#X connect 32 0 34 0;
#X connect 33 0 34 0;
#X connect 36 0 43 0;
#X connect 39 0 40 0;
#X connect 39 0 40 1;
#X connect 40 0 38 0;
#X connect 41 0 36 0;
#X connect 43 0 35 0;
#X connect 43 0 42 0;
#X connect 44 0 39 0;
#X connect 44 0 39 1;
#X restore 350 42 pd gamepad_ctl;
#X obj 350 69 nbx 5 28 -1e+37 1e+37 0 0 empty empty empty 0 -8 0 10
-262144 -258113 -1 0 256;
#N canvas 1100 189 490 400 GUI_ctl 0;
#X obj 96 282 s preset;
#X obj 236 281 s note;
#X obj 160 282 s playStop;
#X obj 299 280 s amp;
#X obj 116 113 vradio 25 1 0 5 empty empty empty 0 -8 0 10 -261234
-1 -1 0;
#X obj 88 30 key;
#N canvas 368 175 450 300 key-preset 0;
#X obj 94 66 route 49 50 51 52 53, f 29;
#X msg 161 91 2;
#X msg 196 91 3;
#X msg 230 91 4;
#X msg 128 91 1;
#X msg 94 91 0;
#X obj 161 124 outlet;
#X obj 94 36 inlet;
#X connect 0 0 5 0;
#X connect 0 1 4 0;
#X connect 0 2 1 0;
#X connect 0 3 2 0;
#X connect 0 4 3 0;
#X connect 1 0 6 0;
#X connect 2 0 6 0;
#X connect 3 0 6 0;
#X connect 4 0 6 0;
#X connect 5 0 6 0;
#X connect 7 0 0 0;
#X restore 88 69 pd key-preset;
#X obj 159 114 tgl 25 0 empty empty empty 17 7 0 10 -261234 -1 -1 0
1;
#X obj 197 116 vsl 25 128 0 127 0 0 empty empty empty 0 -9 0 10 -261234
-1 -1 5000 1;
#X obj 239 115 vsl 25 128 0 127 0 0 empty empty empty 0 -9 0 10 -261234
-1 -1 0 1;
#X obj 181 30 keyup;
#X obj 181 69 sel 32;
#N canvas 1531 277 449 345 qwertyui 0;
#X obj 47 36 inlet;
#X obj 47 65 route 113 119 101 114 116 121 117 105 111 112 97 115 100
102 103 104 106 107 108 59 122 120 99 118 98 110;
#X msg 47 112 0;
#X msg 60 140 1;
#X msg 74 166 2;
#X msg 88 195 3;
#X msg 101 112 4;
#X msg 115 140 5;
#X msg 129 166 6;
#X msg 143 195 7;
#X msg 156 112 8;
#X msg 170 140 9;
#X msg 184 166 10;
#X msg 198 195 11;
#X msg 211 112 12;
#X msg 226 140 13;
#X msg 239 166 14;
#X msg 252 195 15;
#X msg 266 112 16;
#X msg 280 140 17;
#X msg 294 166 18;
#X msg 307 195 19;
#X msg 321 112 20;
#X msg 335 140 21;
#X msg 347 168 22;
#X msg 361 196 23;
#X msg 376 112 24;
#X msg 390 140 25;
#X obj 199 255 * 2;
#X obj 199 277 + 32;
#X obj 199 299 outlet;
#X connect 0 0 1 0;
#X connect 1 0 2 0;
#X connect 1 1 3 0;
#X connect 1 2 4 0;
#X connect 1 3 5 0;
#X connect 1 4 6 0;
#X connect 1 5 7 0;
#X connect 1 6 8 0;
#X connect 1 7 9 0;
#X connect 1 8 10 0;
#X connect 1 9 11 0;
#X connect 1 10 12 0;
#X connect 1 11 13 0;
#X connect 1 12 14 0;
#X connect 1 13 15 0;
#X connect 1 14 16 0;
#X connect 1 15 17 0;
#X connect 1 16 18 0;
#X connect 1 17 19 0;
#X connect 1 18 20 0;
#X connect 1 19 21 0;
#X connect 1 20 22 0;
#X connect 1 21 23 0;
#X connect 1 22 24 0;
#X connect 1 23 25 0;
#X connect 1 24 26 0;
#X connect 1 25 27 0;
#X connect 2 0 28 0;
#X connect 3 0 28 0;
#X connect 4 0 28 0;
#X connect 5 0 28 0;
#X connect 6 0 28 0;
#X connect 7 0 28 0;
#X connect 8 0 28 0;
#X connect 9 0 28 0;
#X connect 10 0 28 0;
#X connect 11 0 28 0;
#X connect 12 0 28 0;
#X connect 13 0 28 0;
#X connect 14 0 28 0;
#X connect 15 0 28 0;
#X connect 16 0 28 0;
#X connect 17 0 28 0;
#X connect 18 0 28 0;
#X connect 19 0 28 0;
#X connect 20 0 28 0;
#X connect 21 0 28 0;
#X connect 22 0 28 0;
#X connect 23 0 28 0;
#X connect 24 0 28 0;
#X connect 25 0 28 0;
#X connect 26 0 28 0;
#X connect 27 0 28 0;
#X connect 28 0 29 0;
#X connect 29 0 30 0;
#X restore 235 69 pd qwertyui;
#X obj 299 227 *;
#X obj 299 254 *;
#X obj 299 201 expr $f1*0.004;
#X connect 4 0 0 0;
#X connect 5 0 6 0;
#X connect 5 0 11 0;
#X connect 5 0 12 0;
#X connect 6 0 4 0;
#X connect 7 0 2 0;
#X connect 8 0 1 0;
#X connect 9 0 15 0;
#X connect 10 0 11 0;
#X connect 11 0 7 0;
#X connect 12 0 8 0;
#X connect 13 0 14 0;
#X connect 13 0 14 1;
#X connect 14 0 3 0;
#X connect 15 0 13 0;
#X connect 15 0 13 1;
#X coords 0 -1 1 1 185 160 1 100 100;
#X restore 136 39 pd GUI_ctl;
#X connect 1 0 2 0;
#X connect 2 0 0 0;
#X connect 2 0 0 1;
#X connect 3 0 4 0;
