#N canvas 1185 162 260 559 12;
#N canvas 1308 147 1113 506 tablet-ctl 0;
#X obj 20 21 receive fromGUI;
#X obj 20 46 list trim;
#X obj 614 76 send toGUI;
#X obj 741 21 receive fromSystem;
#X obj 741 46 list trim;
#X obj 741 71 route /tilts;
#X obj 741 98 unpack 0 0;
#X obj 61 171 sel 1;
#X obj 144 196 sel 1;
#X obj 741 186 s volume;
#X obj 20 221 s frag;
#X obj 61 196 s next;
#X obj 144 221 s gotoone;
#X obj 20 132 unpack;
#X obj 20 161 + 1;
#X obj 103 132 s play;
#X obj 614 211 loadbang;
#X obj 614 357 send toGUI;
#X obj 614 24 r menuupd;
#X msg 614 236 list /menu frag1 frag2 frag3 frag4 frag5 frag6 frag7
frag8 frag9 frag10 frag11 frag12 frag13 frag14 frag15 frag16 frag17
frag18 frag19 frag20 frag21 frag22 frag23 frag24 frag25 frag26 frag27
frag28 frag29 frag30 frag31 frag32 frag33 frag34 frag35 frag36 frag37
frag38 frag39 frag40 frag41 frag42 frag43 frag44 frag45 frag46 frag47
frag48 frag49 frag50 frag51 frag52 frag53;
#X obj 741 156 + 1;
#X obj 741 126 * 1;
#X obj 818 125 + 1;
#X obj 318 132 *;
#X obj 318 161 *;
#X obj 227 251 s osc2-detune;
#X obj 227 216 * 0.2;
#X obj 269 132 * 2.8;
#X obj 269 161 - 1.4;
#X obj 269 279 s osc2-oct;
#X obj 318 306 s cutoff;
#X obj 352 251 s vcf-rez;
#X obj 393 279 s filt-env;
#X obj 318 221 + 50;
#X obj 318 191 * 4000;
#X obj 352 132 * 4;
#X obj 352 161 + 1;
#X obj 393 192 * 5;
#X obj 393 221 - 0.5;
#X obj 435 132 *;
#X obj 435 161 *;
#X obj 435 306 s del-mix;
#X obj 818 207 s cutoff;
#X obj 818 180 + 50;
#X obj 818 155 * 2000;
#X obj 186 161 s del-mix;
#X obj 186 132 * 0.7;
#X msg 614 48 list /count \$1;
#X obj 476 213 s del;
#X obj 476 184 * 249;
#X obj 518 156 s metro;
#X obj 559 130 s click;
#X obj 20 71 route /menu /next /play /gotoone /del /sl1 /sl2 /sl3 /sl4
/sl5 /sl0 /mdel /metro /click, f 73;
#X connect 0 0 1 0;
#X connect 1 0 52 0;
#X connect 3 0 4 0;
#X connect 4 0 5 0;
#X connect 5 0 6 0;
#X connect 6 0 21 0;
#X connect 6 1 22 0;
#X connect 7 0 11 0;
#X connect 8 0 12 0;
#X connect 13 0 14 0;
#X connect 14 0 10 0;
#X connect 16 0 19 0;
#X connect 18 0 47 0;
#X connect 19 0 17 0;
#X connect 20 0 9 0;
#X connect 21 0 20 0;
#X connect 22 0 44 0;
#X connect 23 0 24 0;
#X connect 23 0 24 1;
#X connect 24 0 34 0;
#X connect 26 0 25 0;
#X connect 27 0 28 0;
#X connect 28 0 29 0;
#X connect 33 0 30 0;
#X connect 34 0 33 0;
#X connect 35 0 36 0;
#X connect 36 0 31 0;
#X connect 37 0 38 0;
#X connect 38 0 32 0;
#X connect 39 0 40 0;
#X connect 39 0 40 1;
#X connect 40 0 41 0;
#X connect 43 0 42 0;
#X connect 44 0 43 0;
#X connect 46 0 45 0;
#X connect 47 0 2 0;
#X connect 49 0 48 0;
#X connect 52 0 13 0;
#X connect 52 1 7 0;
#X connect 52 2 15 0;
#X connect 52 3 8 0;
#X connect 52 4 46 0;
#X connect 52 5 26 0;
#X connect 52 6 27 0;
#X connect 52 7 23 0;
#X connect 52 7 23 1;
#X connect 52 8 35 0;
#X connect 52 9 37 0;
#X connect 52 10 39 0;
#X connect 52 10 39 1;
#X connect 52 11 49 0;
#X connect 52 12 50 0;
#X connect 52 13 51 0;
#X restore 73 502 pd tablet-ctl;
#N canvas 1387 207 825 938 analog-synth 0;
#X obj 432 198 r note;
#X obj 465 877 dac~;
#X obj 563 503 line~;
#X floatatom 465 517 5 0 0 0 - - -, f 5;
#X obj 284 479 loadbang;
#X obj 562 528 *~;
#X obj 562 556 *~;
#X obj 432 244 unpack 0 0 0;
#X text 407 223 midinote amp dur;
#X msg 298 553 1.5;
#X obj 121 140 hsl 128 15 0 0.2 0 0 empty osc2-detune osc2-detune -2
-8 0 10 -228856 -1 -1 0 1;
#X obj 121 208 hsl 128 15 10 4000 1 0 empty cutoff cutoff -2 -8 0 10
-228856 -1 -1 0 1;
#X obj 121 174 hsl 128 15 -1.5 1.4 0 0 empty osc2-oct osc2-oct -2 -8
0 10 -228856 -1 -1 0 1;
#X obj 121 345 hsl 128 15 30 120 0 0 empty del-time del-time -2 -8
0 10 -228856 -1 -1 0 1;
#X obj 121 278 hsl 128 15 -0.5 5 0 0 empty filt-env filt-env -2 -8
0 10 -228856 -1 -1 0 1;
#X obj 121 411 hsl 128 15 0.01 1 1 0 empty volume volume -2 -8 0 10
-228856 -1 -1 0 1;
#X obj 434 415 *~ 0.5;
#X obj 121 243 hsl 128 15 1 4 0 0 empty vcf-rez vcf-rez -2 -8 0 10
-228856 -1 -1 0 1;
#X obj 618 201 line~;
#X obj 618 117 t b b;
#X msg 286 514 35;
#X obj 485 646 vd~ chorus;
#X obj 465 672 +~;
#X obj 352 586 *~ 10;
#X obj 485 620 delwrite~ chorus 30;
#X obj 436 540 bob~;
#X msg 327 512 2;
#X obj 121 378 hsl 128 15 0 1 0 0 empty del-mix del-mix -2 -8 0 10
-228856 -1 -1 0 1;
#X obj 121 311 hsl 128 15 0 0.01 0 0 empty vibrato vibrato -2 -8 0
10 -228856 -1 -1 0 1;
#N canvas 177 23 720 739 bandlimosc 0;
#X obj 76 55 inlet;
#X obj 68 486 outlet~;
#X obj 53 437 -~;
#X obj 201 287 /~;
#X obj 222 261 clip~ 1 999999;
#X obj 76 245 phasor~;
#X obj 88 307 *~;
#X obj 88 331 clip~ -0.5 0.5;
#X obj 88 355 *~ 1000;
#X obj 88 379 +~ 501;
#X obj 76 269 -~ 0.5;
#X obj 88 403 tabread4~ \$0-transition;
#N canvas 387 82 453 494 transition-table 0;
#X text 182 38 back the phase up one sample;
#X obj 144 159 cos~;
#X obj 96 154 cos~;
#X msg 40 223 bang;
#X msg 13 95 \; pd dsp 1;
#X msg 177 69 -0.0005;
#X obj 144 133 *~ 3;
#X obj 144 184 *~ 0.33333;
#X obj 96 182 *~ -1;
#X msg 40 50 bang;
#X obj 95 93 phasor~ 22.05;
#X obj 96 215 *~ 0.75;
#X obj 96 242 tabwrite~ \$0-transition;
#X obj 40 28 loadbang;
#X text 232 116 twice the table length;
#X text 220 93 period is 2000 samples \,;
#N canvas 0 22 450 300 (subpatch) 0;
#X array \$0-transition 1002 float 0;
#X coords 0 1 1002 -1 200 140 1;
#X restore 53 297 graph;
#X text 64 439 ----- 1002 samples ----;
#X connect 1 0 7 0;
#X connect 2 0 8 0;
#X connect 3 0 12 0;
#X connect 5 0 10 1;
#X connect 6 0 1 0;
#X connect 7 0 11 0;
#X connect 8 0 11 0;
#X connect 9 0 5 0;
#X connect 9 0 4 0;
#X connect 9 0 3 0;
#X connect 10 0 2 0;
#X connect 10 0 6 0;
#X connect 11 0 12 0;
#X connect 13 0 9 0;
#X restore 271 475 pd transition-table;
#X obj 201 159 loadbang;
#X msg 201 184 8000;
#X obj 347 428 -~;
#X obj 495 278 /~;
#X obj 516 252 clip~ 1 999999;
#X obj 370 236 phasor~;
#X obj 382 298 *~;
#X obj 382 322 clip~ -0.5 0.5;
#X obj 382 346 *~ 1000;
#X obj 382 370 +~ 501;
#X obj 370 260 -~ 0.5;
#X obj 382 394 tabread4~ \$0-transition;
#X text 72 24 freq;
#X obj 193 53 inlet;
#X text 189 22 osc2-detune;
#X obj 311 52 inlet;
#X text 307 21 osc2-octave;
#X obj 311 85 int;
#X obj 290 144 +;
#X obj 172 94 +;
#X obj 76 175 line~;
#X obj 370 177 line~;
#X obj 76 116 mtof;
#X obj 370 128 mtof;
#X text 477 19 vibrato;
#X obj 482 50 inlet;
#X obj 461 75 osc~ 3.5;
#X obj 461 100 *~;
#X obj 461 125 +~ 1;
#X obj 370 202 *~;
#X obj 76 200 *~;
#X obj 311 113 * 12;
#X msg 76 150 \$1 100;
#X msg 370 152 \$1 100;
#X connect 0 0 32 0;
#X connect 0 0 35 0;
#X connect 2 0 1 0;
#X connect 3 0 6 1;
#X connect 4 0 3 1;
#X connect 5 0 10 0;
#X connect 6 0 7 0;
#X connect 7 0 8 0;
#X connect 8 0 9 0;
#X connect 9 0 11 0;
#X connect 10 0 6 0;
#X connect 10 0 2 1;
#X connect 11 0 2 0;
#X connect 13 0 14 0;
#X connect 14 0 3 0;
#X connect 14 0 16 0;
#X connect 15 0 1 0;
#X connect 16 0 19 1;
#X connect 17 0 16 1;
#X connect 18 0 23 0;
#X connect 19 0 20 0;
#X connect 20 0 21 0;
#X connect 21 0 22 0;
#X connect 22 0 24 0;
#X connect 23 0 19 0;
#X connect 23 0 15 1;
#X connect 24 0 15 0;
#X connect 26 0 32 1;
#X connect 28 0 30 0;
#X connect 30 0 44 0;
#X connect 31 0 36 0;
#X connect 32 0 31 0;
#X connect 33 0 43 0;
#X connect 34 0 42 0;
#X connect 35 0 45 0;
#X connect 36 0 46 0;
#X connect 38 0 40 1;
#X connect 39 0 40 0;
#X connect 40 0 41 0;
#X connect 41 0 42 1;
#X connect 41 0 43 1;
#X connect 42 0 18 0;
#X connect 42 0 17 0;
#X connect 43 0 5 0;
#X connect 43 0 4 0;
#X connect 44 0 31 1;
#X connect 45 0 33 0;
#X connect 46 0 34 0;
#X restore 433 334 pd bandlimosc;
#X obj 352 612 +~ 11;
#X obj 352 560 osc~ 0.2;
#X obj 450 487 *~;
#X obj 618 276 *~;
#X obj 618 301 +~ 1;
#X obj 618 328 s~ fltenv;
#X obj 471 454 r~ fltenv;
#X obj 563 419 t f b b;
#X obj 673 449 del 5;
#X msg 673 476 0 100;
#X obj 618 226 *~;
#X obj 618 251 *~;
#X msg 619 164 0 \, 1 35;
#X obj 705 138 del 35;
#X msg 563 467 \$1 35;
#X obj 616 450 del 35;
#X msg 616 477 0.5 90;
#X msg 705 165 0 890;
#X msg 359 378 \$1 100;
#X obj 359 403 line~;
#X obj 465 707 *~;
#X obj 465 835 +~;
#X obj 504 801 *~ 0;
#X obj 568 806 lop~ 2000;
#X obj 513 738 delwrite~ ndel 750;
#X obj 514 770 delread~ ndel 750;
#X connect 0 0 7 0;
#X connect 2 0 5 0;
#X connect 2 0 5 1;
#X connect 3 0 25 2;
#X connect 4 0 20 0;
#X connect 4 0 9 0;
#X connect 4 0 26 0;
#X connect 5 0 6 0;
#X connect 5 0 6 1;
#X connect 6 0 50 1;
#X connect 7 0 29 0;
#X connect 7 1 19 0;
#X connect 7 1 37 0;
#X connect 7 2 38 1;
#X connect 10 0 29 1;
#X connect 11 0 48 0;
#X connect 12 0 29 2;
#X connect 14 0 33 1;
#X connect 15 0 16 1;
#X connect 16 0 25 0;
#X connect 17 0 3 0;
#X connect 18 0 40 0;
#X connect 18 0 40 1;
#X connect 19 0 42 0;
#X connect 19 1 43 0;
#X connect 21 0 22 1;
#X connect 22 0 50 0;
#X connect 23 0 30 0;
#X connect 25 0 24 0;
#X connect 25 0 22 0;
#X connect 26 0 3 0;
#X connect 27 0 52 1;
#X connect 28 0 29 3;
#X connect 29 0 16 0;
#X connect 30 0 21 0;
#X connect 31 0 23 0;
#X connect 32 0 25 1;
#X connect 33 0 34 0;
#X connect 34 0 35 0;
#X connect 36 0 32 1;
#X connect 37 0 44 0;
#X connect 37 1 45 0;
#X connect 37 2 38 0;
#X connect 38 0 39 0;
#X connect 39 0 2 0;
#X connect 40 0 41 0;
#X connect 40 0 41 1;
#X connect 41 0 33 0;
#X connect 42 0 18 0;
#X connect 43 0 47 0;
#X connect 44 0 2 0;
#X connect 45 0 46 0;
#X connect 46 0 2 0;
#X connect 47 0 18 0;
#X connect 48 0 49 0;
#X connect 49 0 32 0;
#X connect 50 0 51 0;
#X connect 50 0 54 0;
#X connect 51 0 1 0;
#X connect 51 0 1 1;
#X connect 52 0 51 1;
#X connect 52 0 53 0;
#X connect 53 0 54 0;
#X connect 55 0 52 0;
#X coords 0 -1 1 1 180 350 1 100 100;
#X restore 37 144 pd analog-synth;
#N canvas 75 101 664 608 in-c-player 0;
#X obj 109 126 tgl 25 0 empty play PLAY 0 -7 0 10 -261234 -1 -1 0 1
;
#X obj 103 350 f;
#X obj 138 350 + 1;
#X obj 103 379 mod 4;
#X floatatom 103 408 5 0 0 0 - - -, f 5;
#X obj 103 434 sel 0;
#X obj 103 463 bng 15 250 50 0 empty empty empty 17 7 0 10 -262144
-1 -1;
#X obj 286 258 qlist;
#X msg 286 230 bang;
#X obj 185 353 r mod;
#X obj 102 232 metro 250;
#X floatatom 171 169 5 0 0 0 - - -, f 5;
#X msg 332 230 read fragments/frag\$1.txt;
#X obj 260 161 f;
#X obj 295 161 + 1;
#X obj 144 126 bng 25 250 50 0 empty next NEXT 0 -7 0 10 -204786 -1
-1;
#X msg 251 122 1;
#X obj 179 126 bng 25 250 50 0 empty gotoone go_to_1 -5 -7 0 10 -204786
-1 -1;
#X obj 251 89 loadbang;
#X obj 318 123 r frag;
#X obj 113 196 hsl 90 15 0 150 0 0 empty del empty -2 -8 0 10 -204786
-1 -1 0 1;
#X obj 260 186 s menuupd;
#X obj 102 257 delay;
#X obj 455 350 tgl 15 0 empty empty empty 17 7 0 10 -262144 -1 -1 0
1;
#X obj 455 370 sel 1;
#X obj 110 168 tgl 20 0 empty metro mtr 0 -7 0 10 -204800 -1 -1 0 1
;
#X obj 139 168 tgl 20 0 empty click clck 0 -7 0 10 -204800 -1 -1 0
1;
#X obj 178 283 spigot;
#X obj 102 287 spigot;
#X obj 119 319 bng 15 250 50 0 empty empty empty 17 7 0 10 -262144
-1 -1;
#X obj 179 314 s ping;
#X obj 455 323 r ping;
#X obj 525 426 noise~;
#X obj 455 428 line~;
#X obj 455 453 *~;
#X obj 455 494 dac~;
#X msg 455 403 0.7 \, 0 30;
#X connect 0 0 28 1;
#X connect 1 0 2 0;
#X connect 1 0 3 0;
#X connect 2 0 1 1;
#X connect 3 0 4 0;
#X connect 4 0 5 0;
#X connect 5 0 6 0;
#X connect 6 0 8 0;
#X connect 8 0 7 0;
#X connect 9 0 3 1;
#X connect 10 0 22 0;
#X connect 11 0 12 0;
#X connect 12 0 7 0;
#X connect 13 0 14 0;
#X connect 13 0 11 0;
#X connect 13 0 21 0;
#X connect 14 0 13 1;
#X connect 15 0 13 0;
#X connect 16 0 13 0;
#X connect 17 0 16 0;
#X connect 18 0 16 0;
#X connect 19 0 13 0;
#X connect 20 0 22 1;
#X connect 22 0 27 0;
#X connect 22 0 28 0;
#X connect 23 0 24 0;
#X connect 24 0 36 0;
#X connect 25 0 10 0;
#X connect 26 0 27 1;
#X connect 27 0 30 0;
#X connect 28 0 1 0;
#X connect 28 0 29 0;
#X connect 31 0 23 0;
#X connect 32 0 34 1;
#X connect 33 0 34 0;
#X connect 34 0 35 0;
#X connect 34 0 35 1;
#X connect 36 0 33 0;
#X coords 0 -1 1 1 120 120 2 100 100;
#X restore 65 16 pd in-c-player;
