#N canvas 859 182 257 491 12;
#N canvas 389 410 890 908 resmpl-synth 0;
#X obj 546 132 r note;
#X obj 436 407 osc~;
#X obj 436 375 mtof;
#X obj 465 770 dac~;
#X obj 436 439 samphold~;
#X obj 505 407 phasor~;
#X floatatom 505 346 5 0 0 0 - - -, f 5;
#X obj 505 375 mtof;
#X obj 593 503 line~;
#X obj 465 707 *~;
#X obj 504 290 + 50;
#X obj 504 265 random 50;
#X obj 358 390 osc~ 0.1;
#X floatatom 465 517 5 0 0 0 - - -, f 5;
#X obj 504 318 spigot;
#X obj 259 325 tgl 15 0 empty rand-res rand-res -15 -7 0 10 -261682
-1 -1 0 1;
#X obj 430 264 spigot;
#X obj 259 290 tgl 15 0 empty ratio-res ratio-res -15 -7 0 10 -261682
-1 -1 0 1;
#X floatatom 439 290 7 0 0 0 - - -, f 7;
#X obj 389 699 rev1~;
#X obj 284 479 loadbang;
#X obj 358 465 *~ 1000;
#X obj 592 528 *~;
#X obj 592 556 *~;
#X obj 656 450 del 5;
#X obj 358 415 +~ 1.5;
#N canvas 949 225 241 205 mfm 0;
#X obj 56 26 inlet;
#X obj 56 51 mtof;
#X obj 56 76 * 1;
#X obj 56 101 ftom;
#X obj 56 126 outlet;
#X obj 109 26 inlet;
#X connect 0 0 1 0;
#X connect 1 0 2 0;
#X connect 2 0 3 0;
#X connect 3 0 4 0;
#X connect 5 0 2 1;
#X restore 430 313 pd mfm;
#X obj 546 178 unpack 0 0 0;
#X text 521 157 midinote amp dur;
#X obj 467 205 t f b;
#X obj 692 419 - 300;
#X obj 593 419 t f b;
#X msg 298 553 1.5;
#X msg 327 512 5;
#X obj 112 145 hsl 128 15 0.01 20 1 0 empty vcfmod-speed vcfmod-speed
-2 -8 0 10 -261682 -1 -1 0 1;
#X obj 112 180 hsl 128 15 10 2000 1 0 empty vcfmod-depth vcfmod-depth
-2 -8 0 10 -261682 -1 -1 0 1;
#X obj 112 290 hsl 128 15 5 25 0 0 empty resmpl-ratio resmpl-ratio
-2 -8 0 10 -261682 -1 -1 0 1;
#X obj 112 325 hsl 128 15 30 120 0 0 empty resmpl-midi resmpl-midi
-2 -8 0 10 -261682 -1 -1 0 1;
#X obj 112 215 hsl 128 15 1.1 10 1 0 empty vcfmod-lev vcfmod-lev -2
-8 0 10 -261682 -1 -1 0 1;
#X obj 112 360 hsl 128 15 0.01 1 1 0 empty volume volume -2 -8 0 10
-261682 -1 -1 0 1;
#X obj 369 278 * 0.25;
#X obj 369 237 int;
#X obj 436 464 *~ 0.5;
#X obj 112 250 hsl 128 15 1 4 0 0 empty vcf-rez vcf-rez -2 -8 0 10
-261682 -1 -1 0 1;
#X obj 359 440 *~;
#X obj 389 733 *~ 0.4;
#X msg 593 467 \$1 15;
#X msg 656 477 0 100;
#X obj 606 337 line~;
#X obj 606 253 t b b;
#X obj 693 274 del 15;
#X obj 398 499 *~;
#X msg 693 301 1 50;
#X msg 284 511 35;
#X obj 485 646 vd~ chorus;
#X obj 465 672 +~;
#X obj 391 568 osc~ 0.1;
#X obj 391 594 *~ 10;
#X obj 391 620 +~ 15;
#X obj 485 620 delwrite~ chorus 30;
#X msg 605 301 1 \, 1.2 15;
#X obj 436 539 bob~;
#X connect 0 0 27 0;
#X connect 1 0 4 0;
#X connect 2 0 1 0;
#X connect 4 0 42 0;
#X connect 5 0 4 1;
#X connect 6 0 7 0;
#X connect 7 0 5 0;
#X connect 8 0 22 0;
#X connect 8 0 22 1;
#X connect 9 0 19 0;
#X connect 9 0 3 0;
#X connect 9 0 3 1;
#X connect 10 0 14 0;
#X connect 11 0 10 0;
#X connect 12 0 25 0;
#X connect 13 0 61 2;
#X connect 14 0 6 0;
#X connect 15 0 14 1;
#X connect 16 0 26 0;
#X connect 17 0 16 1;
#X connect 18 0 26 1;
#X connect 19 0 45 0;
#X connect 20 0 53 0;
#X connect 20 0 32 0;
#X connect 20 0 33 0;
#X connect 21 0 51 0;
#X connect 22 0 23 0;
#X connect 22 0 23 1;
#X connect 23 0 9 1;
#X connect 24 0 47 0;
#X connect 25 0 44 0;
#X connect 25 0 44 1;
#X connect 26 0 6 0;
#X connect 27 0 29 0;
#X connect 27 1 31 0;
#X connect 27 1 49 0;
#X connect 27 2 24 1;
#X connect 29 0 2 0;
#X connect 29 0 16 0;
#X connect 29 1 11 0;
#X connect 30 0 24 1;
#X connect 31 0 46 0;
#X connect 31 1 24 0;
#X connect 32 0 18 0;
#X connect 33 0 13 0;
#X connect 34 0 12 0;
#X connect 35 0 21 1;
#X connect 36 0 41 0;
#X connect 37 0 7 0;
#X connect 38 0 25 1;
#X connect 39 0 42 1;
#X connect 40 0 18 0;
#X connect 41 0 40 0;
#X connect 42 0 61 0;
#X connect 43 0 13 0;
#X connect 44 0 21 0;
#X connect 45 0 3 0;
#X connect 45 0 3 1;
#X connect 46 0 8 0;
#X connect 47 0 8 0;
#X connect 48 0 51 1;
#X connect 49 0 60 0;
#X connect 49 1 50 0;
#X connect 50 0 52 0;
#X connect 51 0 61 1;
#X connect 52 0 48 0;
#X connect 53 0 19 1;
#X connect 54 0 55 1;
#X connect 55 0 9 0;
#X connect 56 0 57 0;
#X connect 57 0 58 0;
#X connect 58 0 54 0;
#X connect 60 0 48 0;
#X connect 61 0 59 0;
#X connect 61 0 55 0;
#X coords 0 -1 1 1 200 290 2 100 100;
#X restore 28 146 pd resmpl-synth;
#N canvas 75 101 664 608 in-c-player 0;
#X obj 109 126 tgl 25 0 empty play PLAY 0 -7 0 10 -261234 -1 -1 0 1
;
#X obj 103 350 f;
#X obj 138 350 + 1;
#X obj 103 379 mod 4;
#X floatatom 103 408 5 0 0 0 - - -, f 5;
#X obj 103 434 sel 0;
#X obj 103 463 bng 15 250 50 0 empty empty empty 17 7 0 10 -262144
-1 -1;
#X obj 286 258 qlist;
#X msg 286 230 bang;
#X obj 185 353 r mod;
#X obj 102 232 metro 250;
#X floatatom 171 169 5 0 0 0 - - -, f 5;
#X msg 332 230 read fragments/frag\$1.txt;
#X obj 260 161 f;
#X obj 295 161 + 1;
#X obj 144 126 bng 25 250 50 0 empty next NEXT 0 -7 0 10 -204786 -1
-1;
#X msg 251 122 1;
#X obj 179 126 bng 25 250 50 0 empty gotoone go_to_1 -5 -7 0 10 -204786
-1 -1;
#X obj 251 89 loadbang;
#X obj 318 123 r frag;
#X obj 113 196 hsl 90 15 0 150 0 0 empty del empty -2 -8 0 10 -204786
-1 -1 0 1;
#X obj 260 186 s menuupd;
#X obj 102 257 delay;
#X obj 455 350 tgl 15 0 empty empty empty 17 7 0 10 -262144 -1 -1 0
1;
#X obj 455 370 sel 1;
#X obj 110 168 tgl 20 0 empty metro mtr 0 -7 0 10 -204800 -1 -1 0 1
;
#X obj 139 168 tgl 20 0 empty click clck 0 -7 0 10 -204800 -1 -1 0
1;
#X obj 178 283 spigot;
#X obj 102 287 spigot;
#X obj 119 319 bng 15 250 50 0 empty empty empty 17 7 0 10 -262144
-1 -1;
#X obj 179 314 s ping;
#X obj 455 323 r ping;
#X obj 525 426 noise~;
#X obj 455 428 line~;
#X obj 455 453 *~;
#X obj 455 494 dac~;
#X msg 455 403 0.7 \, 0 30;
#X connect 0 0 28 1;
#X connect 1 0 2 0;
#X connect 1 0 3 0;
#X connect 2 0 1 1;
#X connect 3 0 4 0;
#X connect 4 0 5 0;
#X connect 5 0 6 0;
#X connect 6 0 8 0;
#X connect 8 0 7 0;
#X connect 9 0 3 1;
#X connect 10 0 22 0;
#X connect 11 0 12 0;
#X connect 12 0 7 0;
#X connect 13 0 14 0;
#X connect 13 0 11 0;
#X connect 13 0 21 0;
#X connect 14 0 13 1;
#X connect 15 0 13 0;
#X connect 16 0 13 0;
#X connect 17 0 16 0;
#X connect 18 0 16 0;
#X connect 19 0 13 0;
#X connect 20 0 22 1;
#X connect 22 0 27 0;
#X connect 22 0 28 0;
#X connect 23 0 24 0;
#X connect 24 0 36 0;
#X connect 25 0 10 0;
#X connect 26 0 27 1;
#X connect 27 0 30 0;
#X connect 28 0 1 0;
#X connect 28 0 29 0;
#X connect 31 0 23 0;
#X connect 32 0 34 1;
#X connect 33 0 34 0;
#X connect 34 0 35 0;
#X connect 34 0 35 1;
#X connect 36 0 33 0;
#X coords 0 -1 1 1 120 120 2 100 100;
#X restore 65 16 pd in-c-player;
#N canvas 1333 785 1113 506 tablet-ctl 0;
#X obj 20 21 receive fromGUI;
#X obj 20 58 list trim;
#X obj 741 28 receive fromSystem;
#X obj 741 56 list trim;
#X obj 741 84 route /tilts;
#X obj 741 111 unpack 0 0;
#X obj 60 221 sel 1;
#X obj 208 214 sel 1;
#X obj 286 308 s vcfmod-speed;
#X obj 323 339 s vcfmod-depth;
#X obj 365 371 s vcfmod-lev;
#X obj 397 199 s vcf-rez;
#X obj 818 191 s resmpl-ratio;
#X obj 741 192 s volume;
#X obj 435 224 s resmpl-midi;
#X obj 20 186 s frag;
#X obj 60 246 s next;
#X obj 208 239 s gotoone;
#X obj 243 327 s del;
#X obj 95 136 s ratio-res;
#X obj 133 160 s rand-res;
#X obj 20 136 unpack;
#X obj 20 161 + 1;
#X obj 172 185 s play;
#X obj 614 215 loadbang;
#X obj 614 365 send toGUI;
#X msg 614 240 list /menu frag1 frag2 frag3 frag4 frag5 frag6 frag7
frag8 frag9 frag10 frag11 frag12 frag13 frag14 frag15 frag16 frag17
frag18 frag19 frag20 frag21 frag22 frag23 frag24 frag25 frag26 frag27
frag28 frag29 frag30 frag31 frag32 frag33 frag34 frag35 frag36 frag37
frag38 frag39 frag40 frag41 frag42 frag43 frag44 frag45 frag46 frag47
frag48 frag49 frag50 frag51 frag52 frag53;
#X obj 285 203 * 20;
#X obj 285 228 + 0.01;
#X obj 322 278 + 10;
#X obj 361 202 * 9;
#X obj 361 227 + 1.1;
#X obj 397 168 + 1;
#X obj 435 143 * 90;
#X obj 435 168 + 30;
#X obj 741 164 + 1;
#X obj 741 137 * 1;
#X obj 818 137 + 1;
#X obj 818 163 * 12.5;
#X obj 285 143 *;
#X obj 285 174 *;
#X obj 360 142 *;
#X obj 360 173 *;
#X obj 322 254 * 500;
#X obj 322 142 *;
#X obj 323 173 *;
#X obj 579 76 send toGUI;
#X obj 579 24 r menuupd;
#X msg 579 48 list /count \$1;
#X obj 243 298 * 249;
#X obj 20 95 route /menu /next /ratiores /randfreq /play /gotoone /del
/sl1 /sl2 /sl3 /sl4 /sl5 /metro /click, f 66;
#X obj 478 141 s metro;
#X obj 508 167 s click;
#X obj 397 143 * 4;
#X connect 0 0 1 0;
#X connect 1 0 50 0;
#X connect 2 0 3 0;
#X connect 3 0 4 0;
#X connect 4 0 5 0;
#X connect 5 0 36 0;
#X connect 5 1 37 0;
#X connect 6 0 16 0;
#X connect 7 0 17 0;
#X connect 21 0 22 0;
#X connect 22 0 15 0;
#X connect 24 0 26 0;
#X connect 26 0 25 0;
#X connect 27 0 28 0;
#X connect 28 0 8 0;
#X connect 29 0 9 0;
#X connect 30 0 31 0;
#X connect 31 0 10 0;
#X connect 32 0 11 0;
#X connect 33 0 34 0;
#X connect 34 0 14 0;
#X connect 35 0 13 0;
#X connect 36 0 35 0;
#X connect 37 0 38 0;
#X connect 38 0 12 0;
#X connect 39 0 40 0;
#X connect 39 0 40 1;
#X connect 40 0 27 0;
#X connect 41 0 42 0;
#X connect 41 0 42 1;
#X connect 42 0 30 0;
#X connect 43 0 29 0;
#X connect 44 0 45 0;
#X connect 44 0 45 1;
#X connect 45 0 43 0;
#X connect 47 0 48 0;
#X connect 48 0 46 0;
#X connect 49 0 18 0;
#X connect 50 0 21 0;
#X connect 50 1 6 0;
#X connect 50 2 19 0;
#X connect 50 3 20 0;
#X connect 50 4 23 0;
#X connect 50 5 7 0;
#X connect 50 6 49 0;
#X connect 50 7 39 0;
#X connect 50 7 39 1;
#X connect 50 8 44 0;
#X connect 50 8 44 1;
#X connect 50 9 41 0;
#X connect 50 9 41 1;
#X connect 50 10 53 0;
#X connect 50 11 33 0;
#X connect 50 12 51 0;
#X connect 50 13 52 0;
#X connect 53 0 32 0;
#X restore 74 459 pd tablet-ctl;
