#N canvas 777 37 590 556 12;
#X obj 106 32 r fromGUI;
#X obj 70 145 print;
#X obj 106 56 list trim;
#X obj 141 93 route /mySliderH /mySliderV;
#X floatatom 146 143 5 0 0 0 - - - 0;
#X floatatom 243 136 5 0 0 0 - - - 0;
#X obj 97 390 s toGUI;
#X msg 96 358 list /mySliderH \$1;
#X obj 97 293 hsl 162 19 0 127 0 0 empty empty empty -2 -10 0 12 #fcfcfc #000000 #000000 0 1;
#X obj 95 327 / 127;
#X obj 487 316 osc~;
#X obj 487 340 *~;
#X obj 487 374 dac~;
#X floatatom 487 236 5 0 0 0 - - - 0;
#X obj 487 259 mtof;
#X floatatom 487 283 5 0 0 0 - - - 0;
#X obj 271 184 + 50;
#X obj 271 160 * 40;
#X text 401 38 <-- odbiornik;
#X text 93 429 nadajnik;
#X text 452 418 silnik audio;
#X connect 0 0 2 0;
#X connect 2 0 1 0;
#X connect 2 0 3 0;
#X connect 3 0 4 0;
#X connect 3 1 5 0;
#X connect 5 0 17 0;
#X connect 7 0 6 0;
#X connect 8 0 9 0;
#X connect 9 0 7 0;
#X connect 9 0 11 1;
#X connect 10 0 11 0;
#X connect 11 0 12 0;
#X connect 11 0 12 1;
#X connect 13 0 14 0;
#X connect 14 0 15 0;
#X connect 15 0 10 0;
#X connect 16 0 13 0;
#X connect 17 0 16 0;
